<?xml version="1.0" standalone="no"?>
<!DOCTYPE svg PUBLIC "-//W3C//DTD SVG 20010904//EN"
 "http://www.w3.org/TR/2001/REC-SVG-20010904/DTD/svg10.dtd">
<svg version="1.0" xmlns="http://www.w3.org/2000/svg"
 width="16219.000000pt" height="13458.000000pt" viewBox="0 0 26219.000000 13458.000000"
 preserveAspectRatio="xMidYMid meet">

<g transform="translate(9000,13458.000000) scale(0.100000,-0.100000)"
fill="#19539b" stroke="none">
<path d="M22800 94307 l-15545 -8992 -2 -17995 -3 -17995 15542 -8989 c8549
-4945 15550 -8990 15559 -8990 9 -1 7012 4045 15562 8989 l15546 8990 -2
17994 -2 17993 -15550 8994 c-8552 4947 -15552 8994 -15555 8993 -3 0 -7000
-4047 -15550 -8992z m27394 -6462 l11826 -6840 0 -13686 0 -13686 -5725 -3312
c-3149 -1821 -5727 -3311 -5730 -3311 -3 0 -4 1108 -3 2461 l3 2461 4553 2646
4552 2646 0 3669 0 3668 -22 -12 c-13 -7 -2056 -1173 -4542 -2591 -2485 -1419
-4525 -2582 -4532 -2585 -12 -4 -14 486 -12 3146 l3 3152 4532 2542 4533 2542
0 4308 c0 2370 -3 4306 -7 4304 -5 -3 -3995 -2292 -8868 -5087 -4873 -2795
-8861 -5086 -8863 -5091 -2 -5 -17 -9 -33 -9 l-29 0 0 -13613 0 -13612 -1739
-1006 -1739 -1006 -4083 2363 -4084 2362 -3 9405 -2 9405 392 -223 c216 -123
1678 -957 3248 -1854 1570 -896 2855 -1629 2856 -1628 7 8 35 8750 28 8757
-11 10 -19783 11136 -19807 11146 -16 6 -17 -283 -17 -4299 l0 -4304 2348
-1341 2347 -1340 3 -9371 c1 -5154 0 -9371 -2 -9371 -3 0 -1552 895 -3443
1989 l-3438 1988 -3 13690 -2 13690 11827 6841 c6506 3763 11833 6841 11839
6839 7 -1 5333 -3080 11838 -6842z"/>
<path d="M33783 84201 c-2641 -1477 -4798 -2689 -4795 -2693 14 -12 9587
-5460 9597 -5461 10 0 8911 5256 8928 5272 5 5 -1998 1257 -4450 2783 -2452
1526 -4462 2777 -4468 2780 -5 3 -2171 -1203 -4812 -2681z"/>

</g>
</svg>
