<?xml version="1.0" standalone="no"?>
<!DOCTYPE svg PUBLIC "-//W3C//DTD SVG 20010904//EN"
 "http://www.w3.org/TR/2001/REC-SVG-20010904/DTD/svg10.dtd">
<svg version="1.0" xmlns="http://www.w3.org/2000/svg"
 width="26219.000000pt" height="13458.000000pt" viewBox="0 0 26219.000000 13458.000000"
 preserveAspectRatio="xMidYMid meet">

<g transform="translate(0.000000,13458.000000) scale(0.100000,-0.100000)"
fill="#19539b" stroke="none">
<path d="M22800 94307 l-15545 -8992 -2 -17995 -3 -17995 15542 -8989 c8549
-4945 15550 -8990 15559 -8990 9 -1 7012 4045 15562 8989 l15546 8990 -2
17994 -2 17993 -15550 8994 c-8552 4947 -15552 8994 -15555 8993 -3 0 -7000
-4047 -15550 -8992z m27394 -6462 l11826 -6840 0 -13686 0 -13686 -5725 -3312
c-3149 -1821 -5727 -3311 -5730 -3311 -3 0 -4 1108 -3 2461 l3 2461 4553 2646
4552 2646 0 3669 0 3668 -22 -12 c-13 -7 -2056 -1173 -4542 -2591 -2485 -1419
-4525 -2582 -4532 -2585 -12 -4 -14 486 -12 3146 l3 3152 4532 2542 4533 2542
0 4308 c0 2370 -3 4306 -7 4304 -5 -3 -3995 -2292 -8868 -5087 -4873 -2795
-8861 -5086 -8863 -5091 -2 -5 -17 -9 -33 -9 l-29 0 0 -13613 0 -13612 -1739
-1006 -1739 -1006 -4083 2363 -4084 2362 -3 9405 -2 9405 392 -223 c216 -123
1678 -957 3248 -1854 1570 -896 2855 -1629 2856 -1628 7 8 35 8750 28 8757
-11 10 -19783 11136 -19807 11146 -16 6 -17 -283 -17 -4299 l0 -4304 2348
-1341 2347 -1340 3 -9371 c1 -5154 0 -9371 -2 -9371 -3 0 -1552 895 -3443
1989 l-3438 1988 -3 13690 -2 13690 11827 6841 c6506 3763 11833 6841 11839
6839 7 -1 5333 -3080 11838 -6842z"/>
<path d="M33783 84201 c-2641 -1477 -4798 -2689 -4795 -2693 14 -12 9587
-5460 9597 -5461 10 0 8911 5256 8928 5272 5 5 -1998 1257 -4450 2783 -2452
1526 -4462 2777 -4468 2780 -5 3 -2171 -1203 -4812 -2681z"/>
<path d="M236280 86804 c-255 -30 -486 -110 -670 -232 -238 -157 -566 -497
-807 -838 -174 -246 -302 -457 -621 -1029 -253 -454 -376 -665 -489 -839 -68
-104 -344 -556 -936 -1531 -1123 -1850 -1910 -3156 -4787 -7950 -2259 -3763
-3226 -5370 -4083 -6787 l-216 -358 1352 0 c744 0 1489 5 1657 10 327 10 871
38 907 45 16 4 64 80 199 318 615 1081 1421 2465 2376 4075 l310 522 5902 -2
5901 -3 73 -140 c297 -569 610 -1119 1342 -2355 722 -1220 1034 -1766 1306
-2285 42 -80 80 -148 86 -151 19 -12 860 -23 2517 -33 899 -6 1636 -9 1638 -8
1 2 -105 176 -235 387 -1427 2309 -2774 4535 -6232 10295 -2973 4952 -4849
8045 -4989 8225 -258 333 -658 571 -1081 644 -92 16 -349 28 -420 20z m30
-4811 c528 -835 1185 -1923 2315 -3833 892 -1507 1466 -2463 1883 -3135 l81
-130 -62 -6 c-88 -9 -555 -28 -1002 -40 -523 -14 -4114 -21 -5962 -12 l-1521
8 47 80 c26 44 250 420 498 835 1500 2514 2562 4335 3442 5903 123 218 227
397 231 397 4 0 27 -30 50 -67z"/>
<path d="M185160 86579 c-1931 -67 -4455 -82 -9795 -58 -2448 11 -4532 5
-5815 -18 l-355 -6 2 -7456 c2 -4101 3 -8426 3 -9612 l0 -2156 111 -6 c152 -9
1598 -26 2517 -30 l754 -3 -6 500 c-9 692 -24 3283 -32 5524 l-7 1872 4889 0
c4457 0 6109 7 7043 26 l334 7 -8 411 c-4 226 -8 875 -9 1441 l-2 1030 -6117
3 -6117 2 0 713 c0 751 14 2826 26 3826 l7 593 481 -7 c265 -5 3006 -9 6091
-10 3086 -1 5797 -5 6025 -10 l415 -8 0 1244 c-1 684 -4 1316 -8 1404 -11 226
-36 584 -47 685 -5 47 -10 91 -10 98 0 13 -21 14 -370 1z"/>
<path d="M121270 86539 c-1361 -22 -4264 -29 -7580 -20 -4094 12 -7647 -3
-8609 -35 l-184 -6 7 -447 c21 -1439 28 -5090 21 -11697 l-7 -7061 209 -6
c605 -18 6443 -30 11594 -22 l5466 7 6 331 c4 182 7 936 7 1676 l0 1346 -6955
0 -6955 0 -2 2550 c-2 1403 -2 2553 0 2558 2 4 2965 7 6586 7 l6583 0 6 1103
c4 606 10 1266 14 1466 l6 364 -464 -8 c-255 -5 -2959 -9 -6009 -10 -3050 -1
-5809 -5 -6132 -10 l-588 -7 0 1429 c0 786 3 1808 7 2271 l6 842 6922 0 6923
0 7 378 c9 413 -1 2901 -11 2970 l-7 42 -211 -2 c-116 -1 -411 -5 -656 -9z"/>
<path d="M146987 85144 c4 -775 7 -5111 6 -9635 l-2 -8226 122 -7 c237 -12
890 -25 1597 -31 727 -6 1432 -20 1573 -31 l78 -6 -7 4256 -7 4256 6099 0
6099 0 3 -2853 c3 -3055 -5 -4156 -40 -5525 l-3 -102 890 0 c930 0 2331 15
2448 26 l67 6 0 9012 c0 4957 -3 9283 -7 9613 l-6 600 -171 6 c-327 13 -1865
20 -2549 12 l-688 -7 6 -67 c6 -76 21 -496 35 -991 21 -727 29 -2144 20 -3355
-5 -665 -13 -1714 -16 -2331 l-7 -1121 -3705 -6 c-2038 -4 -4779 -7 -6090 -7
l-2385 0 6 3488 c4 1918 10 3695 14 3950 l6 463 -484 -8 c-962 -16 -1967 -7
-2747 24 l-164 6 9 -1409z"/>
<path d="M89265 86520 c-1964 -8 -4465 -28 -4504 -36 -23 -5 -23 -7 -17 -87
26 -361 40 -2045 23 -2853 l-8 -372 523 -7 c288 -4 1937 -6 3664 -4 l3142 4 8
-1215 c8 -1207 12 -10841 5 -13365 l-3 -1320 243 -6 c507 -13 2135 -22 2639
-14 l525 7 0 7943 c0 4369 3 7947 7 7951 16 16 3214 26 5258 16 1141 -5 2075
-9 2076 -8 0 0 -2 755 -4 1677 l-4 1676 -3342 7 c-6718 13 -8427 14 -10231 6z"/>
<path d="M133605 86523 c-55 -1 -188 -7 -295 -13 -1964 -106 -3809 -747 -5232
-1817 -650 -489 -1215 -1058 -1710 -1723 -1567 -2107 -2190 -5016 -1678 -7835
284 -1560 906 -3018 1803 -4225 464 -625 1024 -1197 1684 -1723 1294 -1031
2989 -1698 4803 -1892 450 -48 282 -46 4585 -50 2322 -3 4378 0 4835 5 889 11
1728 27 1868 36 l92 6 0 1141 c0 1046 -9 1780 -26 2062 l-6 110 -5187 0
c-5403 0 -5264 -1 -5731 40 -873 78 -1608 271 -2225 585 -361 184 -844 508
-1175 789 -1082 918 -1817 2308 -2044 3866 -263 1802 165 3621 1167 4961 338
453 813 918 1271 1243 793 563 1816 913 3016 1030 473 47 308 46 5756 44
l5161 -2 6 137 c4 75 10 822 13 1660 l7 1522 -39 0 c-21 0 -190 4 -374 10
-1089 32 -1595 35 -5890 35 -2395 0 -4400 -1 -4455 -2z"/>
<path d="M188085 86504 c-5 -11 -10 -4344 -13 -9630 l-4 -9611 248 -8 c297 -9
3054 -10 3081 -1 19 6 20 30 26 1163 4 636 7 4964 7 9618 l0 8463 -212 6
c-117 3 -868 9 -1669 12 -1419 6 -1456 6 -1464 -12z"/>
<path d="M211948 86511 c-197 -4 -361 -10 -364 -14 -4 -3 -1 -232 5 -509 31
-1390 35 -1958 36 -4843 0 -3150 -15 -8635 -24 -8635 -2 0 -118 112 -255 248
-689 680 -3235 3172 -6576 6432 -3280 3201 -4624 4516 -6485 6345 -324 319
-624 605 -665 636 -209 156 -424 252 -692 311 -91 20 -131 22 -348 22 -228 0
-254 -1 -371 -26 -509 -110 -925 -401 -1163 -813 -83 -145 -150 -336 -182
-520 -31 -174 -36 -1339 -38 -9240 -2 -4279 -6 -7970 -11 -8201 l-7 -422 103
-6 c479 -29 1833 -45 2354 -27 368 12 700 29 754 37 l34 5 -8 947 c-4 521 -8
3623 -9 6894 l-1 5947 60 -58 c33 -31 208 -199 390 -372 2210 -2104 5048
-4849 9165 -8863 575 -561 1722 -1680 2550 -2487 828 -807 1537 -1493 1575
-1525 197 -161 496 -326 744 -408 529 -176 1024 -150 1461 75 156 80 235 141
324 249 337 404 502 899 534 1600 4 96 5 1793 1 3770 -14 7339 -9 10714 20
12850 4 311 5 568 2 571 -23 25 -2092 46 -2913 30z"/>
<path d="M251434 86513 l-252 -3 -6 -1733 c-4 -952 -8 -5281 -9 -9619 l-2
-7887 95 -8 c125 -11 3047 -10 3173 0 l97 9 0 9608 0 9607 -177 7 c-583 23
-1854 31 -2919 19z"/>
<path d="M219558 70749 c-285 -22 -567 -117 -791 -265 -124 -83 -377 -319
-469 -437 -368 -478 -432 -1176 -161 -1793 166 -380 468 -701 804 -857 113
-53 176 -74 379 -126 196 -51 312 -65 465 -58 441 21 859 217 1439 677 l145
115 11 55 c6 30 29 136 51 235 115 513 122 562 122 785 -1 193 -8 240 -77 470
-70 234 -169 418 -320 592 -292 337 -787 569 -1296 608 -147 11 -147 11 -302
-1z"/>
<path d="M241980 60992 c-465 -772 -1018 -1597 -1499 -2237 -392 -522 -858
-1015 -1252 -1321 -106 -83 -275 -198 -364 -249 -27 -15 -51 -29 -52 -30 -1 0
111 -300 251 -666 l253 -664 69 2 c38 1 285 22 549 47 1500 142 5573 470 5619
453 18 -7 345 -553 643 -1074 l24 -43 27 17 c52 32 1027 683 1049 700 l23 18
-173 275 c-601 955 -1205 1828 -1962 2834 -181 241 -341 454 -355 472 -14 18
-28 32 -31 31 -20 -7 -978 -613 -979 -619 0 -4 78 -116 173 -250 230 -322 497
-709 718 -1036 l180 -267 -148 -12 c-871 -71 -2192 -167 -3253 -237 -1022 -68
-941 -64 -927 -44 7 9 96 115 198 235 790 929 1638 2029 2387 3097 100 142
182 261 182 265 0 5 -1236 461 -1250 461 -3 0 -48 -71 -100 -158z"/>
<path d="M190855 61028 c-3 -7 -33 -92 -69 -188 -183 -503 -436 -1002 -737
-1451 -371 -556 -868 -1108 -1411 -1568 -49 -41 -88 -76 -88 -78 0 -2 51 -63
113 -135 209 -247 438 -540 577 -740 l53 -77 26 18 c50 36 506 488 647 642
261 284 524 602 709 859 l87 120 790 0 790 0 -6 -127 c-34 -661 -86 -1204
-147 -1510 l-10 -53 -1770 0 -1769 0 0 -510 0 -510 1634 0 1635 0 -22 -52
c-11 -29 -55 -120 -97 -203 -531 -1047 -1609 -1899 -3209 -2535 -108 -42 -217
-85 -243 -95 l-46 -17 97 -132 c190 -257 436 -617 607 -888 l29 -47 170 73
c830 357 1562 784 2148 1254 214 171 350 293 557 501 269 270 461 500 651 779
49 72 92 132 94 132 16 0 608 -322 925 -503 658 -376 1465 -885 2128 -1342 97
-67 115 -76 127 -64 26 27 715 914 715 921 0 8 -534 329 -915 550 -816 472
-1536 864 -2205 1198 -179 89 -326 163 -328 165 -2 1 18 71 45 154 l47 151
1738 0 1738 0 0 510 0 510 -1636 0 -1636 0 6 28 c29 140 113 1105 132 1520 l7
142 1324 0 1323 0 0 510 0 510 -2380 0 c-1309 0 -2380 2 -2380 4 0 2 37 73 82
158 94 176 225 453 321 678 70 164 199 492 194 496 -2 2 -1144 254 -1153 254
-2 0 -7 -6 -9 -12z"/>
<path d="M146095 60753 c-663 -1502 -1496 -2760 -2604 -3931 l-182 -192 131
-141 c168 -180 308 -349 473 -569 72 -96 133 -177 135 -180 9 -11 404 429 649
724 185 222 447 556 605 771 83 115 154 214 315 443 l45 63 90 -133 c456 -668
959 -1213 1666 -1804 l25 -20 -39 -24 c-71 -42 -576 -295 -747 -374 -999 -461
-2148 -858 -3347 -1156 -113 -28 -210 -52 -217 -55 -7 -2 28 -69 86 -167 188
-313 359 -643 425 -820 10 -27 20 -48 24 -48 18 0 622 159 812 213 1406 406
2633 929 3764 1605 126 75 231 136 233 136 3 -1 74 -43 159 -94 1065 -633
2359 -1144 3839 -1514 241 -60 714 -168 795 -181 l35 -5 167 337 c91 186 223
443 293 572 69 128 125 234 123 235 -2 1 -95 17 -208 35 -1445 231 -2806 651
-3929 1214 -124 61 -226 117 -227 122 -2 6 59 58 134 117 590 462 1279 1126
1807 1743 201 234 459 560 634 799 l101 140 0 513 0 513 -2675 0 -2675 0 96
183 c146 279 404 797 404 810 0 8 -207 64 -557 151 -307 77 -563 141 -569 143
-6 2 -46 -76 -89 -174z m4663 -2179 c-63 -89 -294 -373 -422 -520 -175 -201
-661 -686 -871 -869 -281 -245 -640 -525 -952 -743 l-31 -22 -154 110 c-796
571 -1431 1204 -2037 2033 l-42 57 2271 0 2271 0 -33 -46z"/>
<path d="M247753 58168 c3 -2559 4 -2761 20 -2868 72 -471 207 -773 461 -1026
261 -259 580 -397 1076 -466 119 -16 2714 -24 2965 -8 1043 63 1646 460 1844
1212 48 181 124 660 195 1223 41 323 117 1007 113 1012 -1 0 -159 58 -352 128
-192 70 -465 171 -605 225 -140 54 -262 100 -270 102 -12 2 -16 -19 -22 -117
-51 -827 -147 -1739 -210 -1990 -82 -330 -315 -563 -649 -650 -187 -49 -153
-48 -1374 -52 -776 -3 -1180 -1 -1242 6 -307 36 -518 202 -624 492 -75 207
-91 394 -87 1034 l3 450 390 161 c1148 473 2224 951 3340 1484 324 155 1324
646 1333 654 2 2 -158 252 -355 554 l-358 551 -35 -21 c-19 -11 -134 -76 -255
-143 -986 -550 -2052 -1078 -3057 -1516 -407 -177 -971 -409 -995 -409 -11 0
-13 233 -13 1365 l0 1365 -620 0 -620 0 3 -2752z"/>
<path d="M89540 60638 c-529 -1887 -1184 -3452 -1953 -4666 l-109 -174 109
-161 c198 -291 398 -613 522 -841 l69 -127 56 91 c410 662 906 1618 1302 2510
l122 275 1906 3 1906 2 0 545 0 545 -1681 0 c-1597 0 -1681 1 -1674 18 41 108
241 657 301 827 94 269 354 1054 354 1069 0 7 -251 84 -567 175 -313 90 -573
165 -578 167 -6 3 -42 -107 -85 -258z"/>
<path d="M97555 59703 c-1 -1082 -8 -1519 -35 -2263 -5 -146 -13 -298 -16
-337 l-6 -73 -1829 0 -1829 0 0 -575 0 -575 1790 0 c1742 0 1790 0 1790 -19 0
-10 -11 -128 -25 -262 -299 -2879 -1198 -5276 -2708 -7223 -505 -650 -1138
-1307 -1764 -1829 l-122 -102 67 -59 c114 -100 463 -456 551 -561 46 -55 133
-166 194 -248 61 -81 114 -146 118 -145 23 8 511 485 708 693 570 599 1025
1156 1470 1798 l143 207 42 -36 c22 -21 171 -161 330 -313 544 -518 1115
-1131 1590 -1703 l171 -206 438 436 c240 240 437 440 437 444 0 3 -237 246
-527 539 -653 658 -1084 1071 -1695 1622 l-197 177 45 83 c92 168 353 698 438
892 452 1021 775 2087 976 3219 43 244 110 696 110 742 0 56 17 7 34 -96 36
-214 157 -804 221 -1080 256 -1088 598 -2105 1037 -3083 114 -253 404 -830
544 -1082 622 -1120 1389 -2151 2270 -3053 l159 -162 89 102 c231 269 605 646
909 919 l38 34 -63 54 c-239 204 -700 659 -953 941 -1238 1376 -2155 2986
-2837 4980 -308 902 -612 2134 -783 3170 -14 85 -28 167 -31 183 l-6 27 2171
0 2171 0 -2 573 -3 572 -2239 3 -2239 2 7 108 c38 633 47 1076 53 2440 l6
1292 -604 0 -604 0 0 -1167z"/>
<path d="M139916 60788 c-15 -94 -100 -486 -152 -698 -346 -1427 -917 -2785
-1696 -4037 l-88 -142 203 -283 c112 -156 284 -392 382 -526 l179 -242 37 57
c54 86 221 378 292 512 l62 116 3 -412 2 -413 430 0 430 0 0 -1095 0 -1095
-945 0 -945 0 0 -535 0 -535 945 0 945 0 -3 -1717 -3 -1718 -27 -124 c-67
-300 -190 -532 -394 -742 -57 -58 -103 -109 -103 -113 0 -4 183 -240 407 -524
224 -284 407 -518 408 -520 1 -1 163 159 361 356 216 217 430 420 539 512 518
441 1302 1087 1811 1493 l210 168 -142 585 c-78 322 -144 587 -146 589 -2 1
-64 -47 -138 -108 -267 -220 -1150 -955 -1395 -1161 -138 -116 -258 -217 -268
-225 -16 -13 -17 67 -17 1618 l0 1631 1038 2 1037 3 3 533 2 532 -1040 0
-1040 0 2 1093 3 1092 773 3 772 2 0 530 0 530 -1695 0 c-932 0 -1695 2 -1695
4 0 2 74 152 164 332 232 464 416 868 607 1334 l68 165 1625 3 1626 2 0 550 0
550 -1415 0 c-778 0 -1415 4 -1415 8 0 5 11 42 25 83 151 441 537 1750 521
1766 -5 5 -1115 253 -1132 253 -6 0 -14 -19 -18 -42z"/>
<path d="M197170 56365 l0 -3255 590 0 590 0 0 475 0 475 1865 0 1865 0 0
-475 0 -475 590 0 590 0 0 3255 0 3255 -3045 0 -3045 0 0 -3255z m4910 475 l0
-1760 -1865 0 -1865 0 0 1760 0 1760 1865 0 1865 0 0 -1760z"/>
<path d="M88740 55020 l0 -540 620 0 620 0 0 -1080 0 -1080 -1100 0 -1100 0 0
-540 0 -540 1100 0 1100 0 -3 -1797 -3 -1798 -22 -97 c-63 -274 -193 -523
-407 -777 -81 -95 -87 -106 -75 -125 12 -18 340 -475 592 -824 l89 -122 142
134 c322 305 482 426 1043 788 1072 694 2224 1455 2224 1469 0 5 -22 89 -49
187 -65 233 -153 581 -206 817 -23 105 -47 189 -53 188 -5 -1 -112 -76 -238
-166 -481 -344 -1066 -727 -1736 -1135 l-118 -72 0 1665 0 1665 1235 0 1235 0
0 540 0 540 -1235 0 -1235 0 0 1080 0 1080 995 0 995 0 0 540 0 540 -2205 0
-2205 0 0 -540z"/>
<path d="M239700 50160 l0 -4700 625 0 625 0 0 1695 0 1695 1990 0 1990 0 0
-703 c0 -843 -4 -894 -90 -1072 -86 -179 -242 -293 -465 -340 -167 -35 -786
-17 -1744 51 -89 7 -93 6 -88 -12 24 -80 172 -817 207 -1024 11 -69 23 -136
26 -149 l5 -23 727 6 c1002 10 1305 20 1461 46 534 92 878 357 1060 816 44
112 93 299 118 454 16 98 18 377 20 4033 l3 3927 -3235 0 -3235 0 0 -4700z
m5230 2915 l0 -765 -1990 0 -1990 0 0 765 0 765 1990 0 1990 0 0 -765z m0
-2495 l0 -770 -1990 0 -1990 0 0 770 0 770 1990 0 1990 0 0 -770z"/>
<path d="M147768 53553 l-3 -638 -1843 -3 -1842 -2 2 -508 3 -507 1843 -3
1842 -2 0 -610 0 -610 -1762 -2 -1763 -3 0 -500 0 -500 1763 -3 1762 -2 0
-620 0 -620 -2120 0 -2120 0 0 -510 0 -510 2120 0 2120 0 0 -1085 0 -1085 585
0 585 0 0 1085 0 1085 2155 0 2155 0 0 510 0 510 -2155 0 -2155 0 0 620 0 620
1748 2 1747 3 0 500 0 500 -1747 3 -1748 2 0 610 0 610 1843 2 1842 3 3 507 2
508 -1842 2 -1843 3 -3 638 -2 637 -585 0 -585 0 -2 -637z"/>
<path d="M247723 50203 l2 -2938 22 -132 c42 -255 92 -420 179 -599 239 -490
696 -761 1374 -814 103 -8 593 -10 1680 -7 1676 4 1611 2 1909 63 600 123
1006 440 1196 934 47 119 77 245 129 540 56 311 104 646 150 1050 39 338 84
783 88 873 l3 59 -285 97 c-309 106 -558 197 -797 289 l-152 59 -5 -41 c-3
-23 -12 -160 -21 -306 -47 -779 -137 -1643 -196 -1865 -90 -345 -298 -550
-639 -631 -70 -17 -167 -18 -1375 -21 -906 -3 -1325 -1 -1384 7 -232 31 -409
153 -513 356 -53 102 -80 187 -105 329 -16 90 -18 180 -18 894 l0 794 45 18
c25 10 171 66 325 125 1537 582 3190 1316 4650 2066 226 116 413 214 418 217
6 6 -673 1062 -703 1094 -4 5 -101 -43 -216 -106 -1357 -744 -2765 -1413
-4014 -1904 -238 -94 -498 -193 -505 -193 -3 0 -5 592 -5 1315 l0 1315 -620 0
-620 0 3 -2937z"/>
<path d="M191020 48835 l0 -3615 590 0 590 0 0 355 0 355 4160 0 4160 0 0
-355 0 -355 585 0 585 0 0 3615 0 3615 -5335 0 -5335 0 0 -3615z m9500 1720
l0 -875 -4160 0 -4160 0 0 875 0 875 4160 0 4160 0 0 -875z m-2 -2732 l-3
-868 -4157 -3 -4158 -2 0 870 0 870 4160 0 4160 0 -2 -867z"/>
</g>
</svg>
